<svg id="レイヤー_1" data-name="レイヤー 1" xmlns="http://www.w3.org/2000/svg" viewBox="0 0 100 100"><defs><style>.cls-1{fill:#ff8040;stroke:#ff8040;stroke-linecap:round;stroke-linejoin:round;}</style></defs><path class="cls-1" d="M64.88,83a15.58,15.58,0,0,0-4.43-2.55,54.91,54.91,0,0,0-7-2.25c-2.69-.7-5.67-1.32-8.92-1.87s-6.73-1-10.42-1.28q-2,1.5-4.35,3.08a45.89,45.89,0,0,1-5,2.85,40.67,40.67,0,0,1-5.17,2.1,16,16,0,0,1-4.8.82,17.73,17.73,0,0,1-4.5-.52,2.45,2.45,0,0,1-1.95-2.63A5.76,5.76,0,0,1,10,76.93a15.9,15.9,0,0,1,4.43-3.38,27.08,27.08,0,0,1,6.45-2.4,33,33,0,0,1,7.87-.9h5.11q2.39,0,4.05.15,4.78-3.9,10.42-8.85A132.67,132.67,0,0,0,58.65,51.43a68.73,68.73,0,0,0,7.88-10.35,18.62,18.62,0,0,0,3.14-9.53q0-4.8-2.32-7.42c-1.55-1.75-3.88-2.63-7-2.63a19.88,19.88,0,0,0-6.46,1,20.11,20.11,0,0,0-5.17,2.62,30.78,30.78,0,0,0-4.28,3.67c-1.3,1.36-2.55,2.78-3.75,4.28-.3.4-.59.48-.89.22a.72.72,0,0,1-.16-1q2.25-2.7,5.11-5.62a45.51,45.51,0,0,1,6.07-5.25,32.36,32.36,0,0,1,7-3.83,21.13,21.13,0,0,1,8-1.5,16.84,16.84,0,0,1,3.44.38,10.3,10.3,0,0,1,3.45,1.42,8,8,0,0,1,2.71,3,11.25,11.25,0,0,1,1,5.25q0,4.35-3.75,10.2a89.6,89.6,0,0,1-9.37,12q-5.62,6.15-12,12T39.67,70.4q7.5.6,14.55,1.35A57.72,57.72,0,0,1,65,73.7a2.22,2.22,0,0,1,1.8,2.4c-.21,1-.45,2.17-.75,3.53a24.63,24.63,0,0,1-.91,3.22ZM32,74.9a25.85,25.85,0,0,0-2.86-.22c-1.3-.05-2.5-.08-3.59-.08a61.26,61.26,0,0,0-11,.75q-3.83.75-3.83,3.3a2.14,2.14,0,0,0,1.2,1.8,7.27,7.27,0,0,0,3.75.75A20.88,20.88,0,0,0,25.88,79,38.84,38.84,0,0,0,32,74.9Z"/><path class="cls-1" d="M93.67,76.25a5.22,5.22,0,0,1-.59,2,12.32,12.32,0,0,1-1.58,2.48,10.3,10.3,0,0,1-2.17,2,4.28,4.28,0,0,1-2.41.83,3.09,3.09,0,0,1-1.87-.6,2.08,2.08,0,0,1-.83-1.8,7.61,7.61,0,0,1,2-5.25,6,6,0,0,1,4.58-2.25,4.28,4.28,0,0,1,1.8.53A2,2,0,0,1,93.67,76.25Z"/></svg>