<svg id="レイヤー_1" data-name="レイヤー 1" xmlns="http://www.w3.org/2000/svg" viewBox="0 0 100 100"><defs><style>.cls-1{fill:#ff8040;stroke:#ff8040;stroke-linecap:round;stroke-linejoin:round;}</style></defs><path class="cls-1" d="M59.47,16.82a21,21,0,0,1,9.83,2.7,7.52,7.52,0,0,1,4,6.75,8.41,8.41,0,0,1-2.17,5.25,32.07,32.07,0,0,1-7.58,6.16q-2.7,1.65-4.35,2.77a23.11,23.11,0,0,0-2.62,2A5.5,5.5,0,0,0,55.2,44.2a4.49,4.49,0,0,0-.37,1.87A5.71,5.71,0,0,0,56,49.3a47.51,47.51,0,0,0,3.31,4.13c1,1.2,1.87,2.32,2.62,3.37a7.54,7.54,0,0,1,1.13,4.43,15.46,15.46,0,0,1-3,8.4A36.94,36.94,0,0,1,52.13,78a46.55,46.55,0,0,1-11.41,6.53,34.73,34.73,0,0,1-13.2,2.63,27.5,27.5,0,0,1-4.94-.45,12,12,0,0,1-4.2-1.58A8.41,8.41,0,0,1,15.45,82a10.21,10.21,0,0,1-1.12-5,13.92,13.92,0,0,1,1.19-5.71l.61-.14v2.1A10.56,10.56,0,0,0,20,80.57q3.38,2.87,11.47,2.86A37.88,37.88,0,0,0,41,82.23a27.07,27.07,0,0,0,8.1-3.53,18.73,18.73,0,0,0,5.62-5.63,13.62,13.62,0,0,0,2.1-7.5,10.36,10.36,0,0,0-1.42-5.09,42.94,42.94,0,0,0-4-5.71,34.47,34.47,0,0,1-2.71-3.45,4.89,4.89,0,0,1-.9-2.69,4,4,0,0,1,.53-2.18,8.7,8.7,0,0,1,2.17-2q1.65-1.2,4.73-3c2-1.2,4.77-2.86,8.18-5Q68,33.63,68,30.18a6.44,6.44,0,0,0-.67-2.78A7.67,7.67,0,0,0,65,24.7a16,16,0,0,0-4.35-2.25,25.26,25.26,0,0,0-6.59-1.27c-.51,0-.71-.25-.61-.75a18.82,18.82,0,0,1,3.08-2.11C57.8,17.63,58.77,17.13,59.47,16.82Z"/><path class="cls-1" d="M87.67,75.93a5.26,5.26,0,0,1-.59,2,12.61,12.61,0,0,1-1.58,2.48,10.57,10.57,0,0,1-2.17,2,4.26,4.26,0,0,1-2.41.82,3.15,3.15,0,0,1-1.87-.59,2.08,2.08,0,0,1-.83-1.8,7.61,7.61,0,0,1,2-5.25,6,6,0,0,1,4.58-2.25,4.24,4.24,0,0,1,1.8.52A2.06,2.06,0,0,1,87.67,75.93Z"/></svg>