<?xml version="1.0" encoding="utf-8"?>
<!-- Generator: Adobe Illustrator 24.2.3, SVG Export Plug-In . SVG Version: 6.00 Build 0)  -->
<svg version="1.1" id="レイヤー_1" xmlns="http://www.w3.org/2000/svg" xmlns:xlink="http://www.w3.org/1999/xlink" x="0px"
	 y="0px" viewBox="0 0 1440 720" style="enable-background:new 0 0 1440 720;" xml:space="preserve">
<style type="text/css">
	.st0{fill:#E0E0E0;}
</style>
<g>
	<path class="st0" d="M1062.5,32.29c0.33-0.83,0.62-2.12,0.88-3.88s0.38-3.29,0.38-4.62c0-2.5-0.42-5.08-1.25-7.75
		c-0.84-2.66-2.38-5.08-4.62-7.25c-2.25-2.16-5.25-3.91-9-5.25c-3.75-1.33-8.62-2-14.62-2c-4.84,0-9.34,0.96-13.5,2.88
		c-4.17,1.92-8.09,4.21-11.75,6.88c-4.17,3-8.88,7.42-14.12,13.25c-5.25,5.84-10.21,12.38-14.88,19.62
		c-4.67,7.25-8.54,14.92-11.62,23c-3.09,8.09-4.62,15.96-4.62,23.62c0,4.17,0.75,7.59,2.25,10.25c1.5,2.67,3.46,4.75,5.88,6.25
		c2.41,1.5,5.21,2.54,8.38,3.12c3.16,0.58,6.41,0.88,9.75,0.88c14,0,26.75-3.71,38.25-11.12c11.5-7.41,22.41-18.21,32.75-32.38
		c0.5-0.66,0.91-1,1.25-1c0.66,0,1,1.17,1,3.5c0,1.34-0.21,2.46-0.62,3.38c-0.42,0.92-0.88,1.79-1.38,2.62
		c-7.67,11.5-17.79,20.54-30.38,27.12c-12.59,6.59-26.38,9.88-41.38,9.88c-4.84,0-9.46-0.46-13.88-1.38
		c-4.42-0.92-8.34-2.5-11.75-4.75c-3.42-2.25-6.12-5.25-8.12-9s-3-8.46-3-14.12c0-6.33,1.21-12.83,3.62-19.5
		c2.41-6.66,5.54-13.08,9.38-19.25c3.83-6.16,8.12-11.91,12.88-17.25c4.75-5.33,9.54-9.83,14.38-13.5c6-4.66,12.66-8.38,20-11.12
		c7.33-2.75,15-4.12,23-4.12c6,0,12.12,0.62,18.38,1.88s12.04,3.46,17.38,6.62c1.33,0.67,2,1.67,2,3c-1.17,2-2.67,5.12-4.5,9.38
		c-1.84,4.25-3.34,8.04-4.5,11.38L1062.5,32.29z"/>
	<path class="st0" d="M1149.5,68.29c-2.84,3.84-6.29,7.29-10.38,10.38c-4.09,3.09-8.71,4.62-13.88,4.62c-2.84,0-5.62-0.71-8.38-2.12
		c-2.75-1.41-4.96-3.54-6.62-6.38c-1.17,2.67-2.67,5.71-4.5,9.12c-1.84,3.42-4,6.84-6.5,10.25c-2.5,3.42-5.29,6.54-8.38,9.38
		c-3.09,2.84-6.38,5.17-9.88,7c-3,1.33-5.5,2-7.5,2c-6,0-9-2.66-9-8c0-3,0.54-6.08,1.62-9.25c1.08-3.16,2.46-6.25,4.12-9.25
		c1.66-3,3.46-5.83,5.38-8.5c1.91-2.66,3.71-4.83,5.38-6.5c3.5-3.83,7.5-7.08,12-9.75c4.5-2.66,9.33-4.25,14.5-4.75
		c0.33-1.33,0.83-2.88,1.5-4.62c0.66-1.75,1.83-2.79,3.5-3.12c0.83-0.16,1.66-0.33,2.5-0.5c0.83-0.16,1.58-0.41,2.25-0.75
		c0.5-0.33,1-0.38,1.5-0.12s0.58,0.71,0.25,1.38c-1.17,1.84-2.04,4.17-2.62,7c-0.59,2.84-0.88,5.92-0.88,9.25
		c0,4.67,0.88,8.5,2.62,11.5s4.79,4.5,9.12,4.5c4.33,0,8.25-1.41,11.75-4.25c3.5-2.83,6.41-5.91,8.75-9.25
		c0.33-0.83,0.88-1.08,1.62-0.75C1150.13,67.12,1150.17,67.62,1149.5,68.29z M1108.25,70.04c-0.34-1.5-0.59-3.25-0.75-5.25
		c-0.17-2-0.25-3.91-0.25-5.75c0-0.83-0.34-1.25-1-1.25c-1.84,0-3.75,0.62-5.75,1.88s-4,2.92-6,5c-2,2.09-4,4.46-6,7.12
		c-2,2.67-3.84,5.42-5.5,8.25c-2.17,3.67-4.12,7.62-5.88,11.88s-2.54,8.29-2.38,12.12c0,1.17,0.21,2.25,0.62,3.25
		c0.41,1,1.38,1.5,2.88,1.5c2.83,0,5.91-1.58,9.25-4.75c3.33-3.16,6.5-6.88,9.5-11.12s5.54-8.54,7.62-12.88
		C1106.71,75.7,1107.92,72.37,1108.25,70.04z"/>
	<path class="st0" d="M1205.5,80.79c-2.84,4-6.17,8.21-10,12.62c-3.84,4.42-7.84,8.46-12,12.12c-4.17,3.67-8.42,6.71-12.75,9.12
		c-4.34,2.41-8.42,3.62-12.25,3.62c-2.84,0-5.04-0.75-6.62-2.25c-1.59-1.5-2.38-3.84-2.38-7c0-1.5,0.21-3.21,0.62-5.12
		c0.41-1.91,1.12-4.04,2.12-6.38c-1,1.17-2.12,2.54-3.38,4.12c-1.25,1.59-2.67,3.09-4.25,4.5c-1.59,1.42-3.34,2.59-5.25,3.5
		c-1.92,0.92-4.04,1.38-6.38,1.38c-1.84,0-3.34-0.54-4.5-1.62c-1.17-1.08-1.75-2.79-1.75-5.12c0-1.33,0.29-3,0.88-5
		c0.58-2,1.66-4.71,3.25-8.12c1.58-3.41,3.75-7.66,6.5-12.75c2.75-5.08,6.29-11.38,10.62-18.88c0.83-1.66,1.58-2.5,2.25-2.5
		c1.16,0,2.38,0.71,3.62,2.12c1.25,1.42,1.88,2.38,1.88,2.88s-0.5,1.5-1.5,3c-2.67,4-5.17,8-7.5,12c-2.34,4-4.38,7.75-6.12,11.25
		s-3.17,6.62-4.25,9.38c-1.09,2.75-1.62,4.88-1.62,6.38c0,2.5,0.91,3.75,2.75,3.75c1.66,0,3.96-1.29,6.88-3.88
		c2.91-2.58,6.38-6.96,10.38-13.12c1.5-2.66,3.04-5.46,4.62-8.38c1.58-2.91,3.12-5.71,4.62-8.38c1.5-2.66,2.91-5.12,4.25-7.38
		c1.33-2.25,2.33-3.96,3-5.12c0.83-1.16,1.5-1.75,2-1.75c0.66,0,1.41,0.71,2.25,2.12c0.83,1.42,1.25,3.12,1.25,5.12
		c0,1.34-0.34,2.59-1,3.75c-2,3-4.12,5.96-6.38,8.88c-2.25,2.92-4.34,5.96-6.25,9.12c-1.92,3.17-3.54,6.5-4.88,10
		c-1.34,3.5-2,7.34-2,11.5c0,3.66,1.75,5.5,5.25,5.5c2.33,0,5.12-0.88,8.38-2.62s6.79-4.21,10.62-7.38c3.83-3.16,7.79-7,11.88-11.5
		c4.08-4.5,7.96-9.41,11.62-14.75C1205,79.2,1205.5,79.62,1205.5,80.79z"/>
	<path class="st0" d="M1248.75,59.79c-1,1.17-2.04,2.59-3.12,4.25c-1.09,1.67-1.79,2.92-2.12,3.75c-0.17,0.5-0.5,0.75-1,0.75
		c-0.17,0-0.42-0.25-0.75-0.75c-0.34-0.5-0.79-1.04-1.38-1.62c-0.59-0.58-1.38-1.12-2.38-1.62s-2.42-0.75-4.25-0.75
		c-2.17,0-4.59,0.75-7.25,2.25c-2.67,1.5-5,3.17-7,5c-3.17,2.67-5.96,5.59-8.38,8.75c-2.42,3.17-4.71,6.46-6.88,9.88
		c-2.17,3.42-4.25,6.92-6.25,10.5c-2,3.59-4.17,7.21-6.5,10.88c-0.17,0.5-0.67,0.75-1.5,0.75c-0.34,0-1.04-0.5-2.12-1.5
		c-1.09-1-1.62-1.75-1.62-2.25c0-1,0.58-2.5,1.75-4.5c2.66-4.66,5.38-9.38,8.12-14.12s5.33-9.21,7.75-13.38
		c2.41-4.16,4.54-7.79,6.38-10.88c1.83-3.08,3.08-5.38,3.75-6.88c0.83-1.5,1.41-2.25,1.75-2.25c0.33,0,1.16,0.42,2.5,1.25
		c1.33,0.84,2,2,2,3.5c0,0.5-0.29,1.34-0.88,2.5c-0.59,1.17-1.25,2.38-2,3.62s-1.46,2.46-2.12,3.62c-0.67,1.17-1.17,2-1.5,2.5
		c-0.5,0.84-0.59,1.25-0.25,1.25c0.33,0,0.75-0.25,1.25-0.75c1.66-1.66,3.71-3.5,6.12-5.5c2.41-2,4.96-3.88,7.62-5.62
		c2.66-1.75,5.29-3.21,7.88-4.38c2.58-1.16,4.88-1.75,6.88-1.75c1.5,0,2.79,0.38,3.88,1.12
		C1248.21,58.16,1248.75,58.95,1248.75,59.79z"/>
	<path class="st0" d="M1278,65.04c-0.5,0.84-0.92,0.92-1.25,0.25c-1-2.16-3.09-3.25-6.25-3.25c-2.34,0-4.67,0.67-7,2
		c-2.34,1.34-3.5,3.34-3.5,6c0,1.34,0.41,2.67,1.25,4c0.83,1.34,2,3.09,3.5,5.25c1.33,2,2.58,4,3.75,6c1.16,2,1.75,4.09,1.75,6.25
		c0,4.34-1,7.88-3,10.62s-4.38,4.96-7.12,6.62c-2.75,1.67-5.54,2.79-8.38,3.38c-2.84,0.58-5.09,0.88-6.75,0.88
		c-10.17,0-15.75-3.41-16.75-10.25c0.84-0.5,1.79-1.12,2.88-1.88c1.08-0.75,1.88-1.46,2.38-2.12c0.33,0,0.58,0.34,0.75,1
		c0.83,3,2.41,5.59,4.75,7.75c2.33,2.17,5.08,3.25,8.25,3.25c1.33,0,2.91-0.12,4.75-0.38c1.83-0.25,3.54-0.83,5.12-1.75
		c1.58-0.91,2.96-2.21,4.12-3.88c1.16-1.66,1.75-3.91,1.75-6.75c0-2.16-0.42-4.16-1.25-6c-0.84-1.83-1.75-3.5-2.75-5
		c-1-1.66-2-3.33-3-5c-1-1.66-1.5-3.5-1.5-5.5s0.71-4.16,2.12-6.5c1.41-2.33,3.21-4.46,5.38-6.38c2.16-1.91,4.54-3.54,7.12-4.88
		c2.58-1.33,5.12-2,7.62-2c2.66,0,4,0.84,4,2.5c-0.5,0.84-1,1.79-1.5,2.88C1278.75,63.25,1278.33,64.2,1278,65.04z"/>
	<path class="st0" d="M1349.75,81.04c-2.84,3.5-6.21,7.12-10.12,10.88c-3.92,3.75-8.17,7.17-12.75,10.25
		c-4.59,3.09-9.34,5.59-14.25,7.5c-4.92,1.91-9.79,2.88-14.62,2.88c-7.84,0-11.75-3.5-11.75-10.5c0-4.66,1.21-9.71,3.62-15.12
		c2.41-5.41,5.54-10.41,9.38-15c3.83-4.58,8.04-8.41,12.62-11.5c4.58-3.08,8.96-4.62,13.12-4.62c2.33,0,3.96,0.42,4.88,1.25
		c0.91,0.84,1.38,1.92,1.38,3.25c0,2-0.62,4.17-1.88,6.5c-1.25,2.34-3.12,4.54-5.62,6.62c-2.5,2.09-5.67,3.84-9.5,5.25
		c-3.84,1.42-8.42,2.12-13.75,2.12c-0.84,1.5-1.75,3.88-2.75,7.12s-1.5,6.54-1.5,9.88c0,6.84,3.08,10.25,9.25,10.25
		c3.83,0,7.79-0.91,11.88-2.75c4.08-1.83,8.04-4.12,11.88-6.88c3.83-2.75,7.38-5.75,10.62-9s5.96-6.29,8.12-9.12
		c0.33-0.33,0.71-0.41,1.12-0.25C1349.54,80.2,1349.75,80.54,1349.75,81.04z M1323.5,61.54c0-2.16-1.09-3.25-3.25-3.25
		c-1.67,0-3.38,0.62-5.12,1.88s-3.46,2.88-5.12,4.88c-1.67,2-3.25,4.17-4.75,6.5c-1.5,2.34-2.75,4.59-3.75,6.75
		c0.33,0.17,0.91,0.29,1.75,0.38c0.83,0.09,1.5,0.12,2,0.12c4.83,0,9.08-1.71,12.75-5.12C1321.66,70.25,1323.5,66.2,1323.5,61.54z"
		/>
	<path class="st0" d="M1304.25,188.29c-2.84,3.84-6.29,7.29-10.38,10.38c-4.09,3.09-8.71,4.62-13.88,4.62
		c-2.84,0-5.62-0.71-8.38-2.12c-2.75-1.41-4.96-3.54-6.62-6.38c-1.17,2.67-2.67,5.71-4.5,9.12c-1.84,3.42-4,6.84-6.5,10.25
		c-2.5,3.42-5.29,6.54-8.38,9.38c-3.09,2.84-6.38,5.17-9.88,7c-3,1.33-5.5,2-7.5,2c-6,0-9-2.66-9-8c0-3,0.54-6.08,1.62-9.25
		c1.08-3.16,2.46-6.25,4.12-9.25c1.66-3,3.46-5.83,5.38-8.5c1.91-2.66,3.71-4.83,5.38-6.5c3.5-3.83,7.5-7.08,12-9.75
		c4.5-2.66,9.33-4.25,14.5-4.75c0.33-1.33,0.83-2.88,1.5-4.62c0.66-1.75,1.83-2.79,3.5-3.12c0.83-0.16,1.66-0.33,2.5-0.5
		c0.83-0.16,1.58-0.41,2.25-0.75c0.5-0.33,1-0.38,1.5-0.12s0.58,0.71,0.25,1.38c-1.17,1.84-2.04,4.17-2.62,7
		c-0.59,2.84-0.88,5.92-0.88,9.25c0,4.67,0.88,8.5,2.62,11.5s4.79,4.5,9.12,4.5c4.33,0,8.25-1.41,11.75-4.25
		c3.5-2.83,6.41-5.91,8.75-9.25c0.33-0.83,0.88-1.08,1.62-0.75C1304.88,187.12,1304.91,187.62,1304.25,188.29z M1263,190.04
		c-0.34-1.5-0.59-3.25-0.75-5.25c-0.17-2-0.25-3.91-0.25-5.75c0-0.83-0.34-1.25-1-1.25c-1.84,0-3.75,0.62-5.75,1.88s-4,2.92-6,5
		c-2,2.09-4,4.46-6,7.12c-2,2.67-3.84,5.42-5.5,8.25c-2.17,3.67-4.12,7.62-5.88,11.88s-2.54,8.29-2.38,12.12
		c0,1.17,0.21,2.25,0.62,3.25c0.41,1,1.38,1.5,2.88,1.5c2.83,0,5.91-1.58,9.25-4.75c3.33-3.16,6.5-6.88,9.5-11.12
		s5.54-8.54,7.62-12.88C1261.46,195.7,1262.66,192.37,1263,190.04z"/>
	<path class="st0" d="M1440,52.04c0,0.67-0.12,1.84-0.38,3.5c-0.25,1.67-0.5,3.5-0.75,5.5s-0.5,4-0.75,6s-0.38,3.5-0.38,4.5
		c-0.34,0.34-0.75,0.5-1.25,0.5c-0.34,0-0.67-0.16-1-0.5c0.33-1.33,0.54-2.5,0.62-3.5c0.08-1,0.12-2,0.12-3
		c0-3.33-1.38-5.91-4.12-7.75c-2.75-1.83-6.62-2.75-11.62-2.75c-3.5,0-7.12,0.59-10.88,1.75c-3.75,1.17-7.59,3.25-11.5,6.25
		c-3.92,3-8,7-12.25,12s-8.62,11.34-13.12,19c-2.5,4.34-5.59,9.92-9.25,16.75c-3.67,6.84-7.59,14.12-11.75,21.88
		c-4.17,7.75-8.34,15.67-12.5,23.75c-4.17,8.09-8,15.62-11.5,22.62c1.5,0,4-0.04,7.5-0.12c3.5-0.08,7.08-0.12,10.75-0.12
		c3.66,0,7,0,10,0c3.16,0,5.25,0,6.25,0c0.83,0.5,1.08,1.34,0.75,2.5c-0.67,0-2.34,0-5,0c-2.67,0-5.84,0.04-9.5,0.12
		c-3.67,0.09-7.46,0.17-11.38,0.25c-3.92,0.09-7.46,0.12-10.62,0.12c-5.5,10.67-11.29,21.38-17.38,32.12
		c-6.09,10.75-12.17,21.12-18.25,31.12c-6.09,10-12.09,19.29-18,27.88c-5.91,8.58-11.38,16.12-16.38,22.62
		c-12.5,16-24.38,29.54-35.62,40.62c-11.25,11.08-21.96,20.08-32.12,27c-10.16,6.91-19.71,11.91-28.62,15
		c-8.91,3.08-17.38,4.62-25.38,4.62c-2.33,0-4.88-0.25-7.62-0.75s-5.41-1.5-8-3c-2.58-1.5-4.88-3.62-6.88-6.38s-3.5-6.38-4.5-10.88
		c0-1.34,0.17-1.92,0.5-1.75c0.34,0.16,0.67,0.66,1,1.5c0.17,1.16,0.84,2.71,2,4.62c1.17,1.91,2.88,3.79,5.12,5.62
		c2.25,1.83,5.04,3.38,8.38,4.62c3.34,1.25,7.34,1.88,12,1.88c7.5-0.17,15.62-1.54,24.38-4.12c8.75-2.59,17.96-7.12,27.62-13.62
		c9.67-6.5,19.79-15.21,30.38-26.12c10.59-10.92,21.54-24.71,32.88-41.38c6-8.84,11.96-18.29,17.88-28.38
		c5.91-10.09,11.66-20.09,17.25-30c5.58-9.91,10.83-19.46,15.75-28.62c4.91-9.16,9.38-17.16,13.38-24c-7.17,0.5-12.84,1-17,1.5
		c-4.17,0.5-7.5,1.29-10,2.38c-2.5,1.09-4.46,2.67-5.88,4.75c-1.42,2.09-3.04,4.96-4.88,8.62l-0.75-0.25c2.33-5.5,4.66-9.62,7-12.38
		c2.33-2.75,4.5-4.46,6.5-5.12c1.33-0.33,3.12-0.66,5.38-1c2.25-0.33,4.66-0.58,7.25-0.75c2.58-0.16,5.12-0.33,7.62-0.5
		c2.5-0.16,4.66-0.25,6.5-0.25c8.33-15.33,16.38-29.54,24.12-42.62c7.75-13.08,15.79-25.88,24.12-38.38
		c4.5-6.83,9.33-13.46,14.5-19.88c5.16-6.41,10.41-12.08,15.75-17c5.33-4.91,10.62-8.83,15.88-11.75
		c5.25-2.91,10.29-4.38,15.12-4.38c3.33,0,6.25,0.75,8.75,2.25S1440,50.04,1440,52.04z"/>
	<path class="st0" d="M851.01,431.29c0.17-3,1.29-5.71,3.38-8.12s4.88-5.29,8.38-8.62c32-29.83,57.83-53.38,77.5-70.62
		c19.66-17.25,32.25-27.79,37.75-31.62c1.33-0.83,3.33-1.58,6-2.25c2.66-0.66,4.5-1.5,5.5-2.5s1.54-1.12,1.62-0.38
		c0.08,0.75-0.04,1.46-0.38,2.12c-1.67,2.5-3,5.38-4,8.62s-1.67,5.96-2,8.12c-0.17,0.67-0.62,2.88-1.38,6.62s-1.62,8.34-2.62,13.75
		c-1,5.42-2.04,11.25-3.12,17.5c-1.09,6.25-2.12,12.25-3.12,18s-1.79,10.92-2.38,15.5c-0.59,4.59-0.96,7.79-1.12,9.62
		c0,2.84,0.29,5.04,0.88,6.62c0.58,1.59,1.29,2.75,2.12,3.5c0.83,0.75,1.66,1.21,2.5,1.38c0.83,0.17,1.5,0.25,2,0.25
		c0.83,0,1.83-0.12,3-0.38c1.16-0.25,2.41-0.54,3.75-0.88c1.33-0.33,2.04-0.25,2.12,0.25c0.08,0.5-0.54,0.92-1.88,1.25
		c-0.67,0.17-1.88,0.5-3.62,1s-3.75,1.09-6,1.75c-2.25,0.67-4.5,1.29-6.75,1.88s-4.21,1.04-5.88,1.38c-2.5,0-4.17-1.66-5-5
		c0.16-1,0.5-3.12,1-6.38s1.04-6.71,1.62-10.38c0.58-3.66,1.12-7.12,1.62-10.38s0.75-5.38,0.75-6.38c0-1.83-0.88-3.71-2.62-5.62
		c-1.75-1.91-4.29-3.29-7.62-4.12c-1.17-0.33-3.42-0.58-6.75-0.75c-3.34-0.16-7.34-0.25-12-0.25c-4.84,0-9.59-0.04-14.25-0.12
		c-4.67-0.08-8.17-0.29-10.5-0.62c-12.67,11.5-23.29,22-31.88,31.5c-8.59,9.5-15.04,17.41-19.38,23.75
		c-1.34,2.16-2.29,4.12-2.88,5.88c-0.59,1.75-1.04,4.04-1.38,6.88c-0.33,1-0.83,1.25-1.5,0.75L851.01,431.29z M915.51,370.29
		c0.16,1,1.25,1.75,3.25,2.25s4.38,0.84,7.12,1c2.75,0.17,5.62,0.25,8.62,0.25s5.5,0,7.5,0c5.33,0,9.66,0.04,13,0.12
		c3.33,0.09,5.66,0.29,7,0.62c1.66,0.5,2.62,0.71,2.88,0.62c0.25-0.08,0.54-0.71,0.88-1.88c0.66-3.33,1.5-7.83,2.5-13.5
		c1-5.66,2-11.33,3-17c1-5.66,1.88-10.62,2.62-14.88s1.21-6.71,1.38-7.38c0.33-1.33,0.33-2.04,0-2.12c-0.34-0.08-1.17,0.38-2.5,1.38
		c-0.5,0.34-1.92,1.46-4.25,3.38c-2.34,1.92-5.29,4.38-8.88,7.38c-3.59,3-7.5,6.29-11.75,9.88c-4.25,3.59-8.42,7.17-12.5,10.75
		c-4.09,3.59-7.88,7.04-11.38,10.38C920.51,364.87,917.67,367.79,915.51,370.29z"/>
	<path class="st0" d="M1064.26,390.29c-2.5,3.17-5.34,6.38-8.5,9.62c-3.17,3.25-6.42,6.34-9.75,9.25
		c-3.34,2.92-6.75,5.54-10.25,7.88c-3.5,2.34-6.84,4.17-10,5.5c-2.5,1-4.79,1.71-6.88,2.12c-2.09,0.41-4.04,0.62-5.88,0.62
		c-9.17,0-13.75-3.83-13.75-11.5c0-3,0.66-6.16,2-9.5c3.16-7.83,7.62-14.79,13.38-20.88c5.75-6.08,11.96-10.54,18.62-13.38
		c2-0.83,3.66-1.25,5-1.25c6.16,0,9.25,2.42,9.25,7.25c0,2.5-0.59,4.42-1.75,5.75c-1,1-2.67,2.42-5,4.25l-0.75-0.25
		c0.5-1.33,0.75-2.75,0.75-4.25c0-1.66-0.62-3.25-1.88-4.75s-3.21-2.25-5.88-2.25c-3.17,0-6.21,1.04-9.12,3.12
		c-2.92,2.09-5.5,4.84-7.75,8.25c-2.25,3.42-4.04,7.34-5.38,11.75c-1.34,4.42-2,8.96-2,13.62c0,3.5,0.96,6.12,2.88,7.88
		c1.91,1.75,4.29,2.62,7.12,2.62c4.66,0,10.96-2.71,18.88-8.12c7.91-5.41,16.38-13.62,25.38-24.62c0.83-0.83,1.46-1.04,1.88-0.62
		C1065.29,388.83,1065.09,389.45,1064.26,390.29z"/>
	<path class="st0" d="M1138.5,389.54c-3.84,4.67-8.04,9.38-12.62,14.12c-4.59,4.75-9.21,9.04-13.88,12.88
		c-4.67,3.84-9.29,6.92-13.88,9.25c-4.59,2.33-8.79,3.5-12.62,3.5c-3.34,0-5.67-0.84-7-2.5c-1.34-1.67-2-3.75-2-6.25
		c0-2.33,0.71-5.46,2.12-9.38c1.41-3.91,3.54-8.12,6.38-12.62c-2.17,2.84-4.67,5.84-7.5,9c-2.84,3.17-5.75,6.04-8.75,8.62
		c-3,2.59-6,4.75-9,6.5s-5.67,2.62-8,2.62c-3.5,0-5.25-1.75-5.25-5.25c0-3.83,1.5-8.66,4.5-14.5c3-5.83,7.04-11.46,12.12-16.88
		c5.08-5.41,10.88-10.08,17.38-14c6.5-3.91,13.25-5.88,20.25-5.88c0.83-1.66,1.58-2.83,2.25-3.5c0.66-0.66,1.33-1.16,2-1.5l7-2
		l0.5,0.25c-0.84,0.84-1.62,1.88-2.38,3.12s-1.54,2.54-2.38,3.88c0.83,0,2.08,0.09,3.75,0.25c1.66,0.17,2.91,0.34,3.75,0.5
		c0.83,0.34,1.25,0.75,1.25,1.25s-0.25,0.75-0.75,0.75c-1-0.33-2.5-0.58-4.5-0.75c-2-0.16-3.5-0.25-4.5-0.25
		c-7.67,13.5-13.29,24.21-16.88,32.12c-3.59,7.92-5.38,13.79-5.38,17.62c0,1.5,0.38,2.75,1.12,3.75s2.29,1.5,4.62,1.5
		c2.66,0,5.83-0.96,9.5-2.88c3.66-1.91,7.58-4.58,11.75-8c4.16-3.41,8.46-7.38,12.88-11.88c4.41-4.5,8.62-9.25,12.62-14.25
		c0.33-0.5,0.66-0.62,1-0.38C1138.34,388.66,1138.5,389.04,1138.5,389.54z M1099.5,370.54c-5.67,0-11.09,2-16.25,6
		c-5.17,4-9.75,8.71-13.75,14.12c-4,5.42-7.21,10.79-9.62,16.12c-2.42,5.34-3.62,9.25-3.62,11.75c0,1.34,0.5,2,1.5,2
		s2.54-0.66,4.62-2c2.08-1.33,4.46-3.12,7.12-5.38c2.66-2.25,5.38-4.88,8.12-7.88s5.29-6.25,7.62-9.75c2.66-4,5.25-8.25,7.75-12.75
		s4.75-8.5,6.75-12L1099.5,370.54z"/>
	<path class="st0" d="M1282,257.54c0,1-0.5,2-1.5,3s-1.67,2.42-2,4.25c-0.34,1.17-0.92,1.75-1.75,1.75c-0.5,0-1-0.12-1.5-0.38
		s-1.12-0.54-1.88-0.88c-0.75-0.33-1.67-0.62-2.75-0.88c-1.09-0.25-2.62-0.38-4.62-0.38c-2.84,0-5.67,0.38-8.5,1.12
		c-2.84,0.75-5.42,1.88-7.75,3.38c-4.67,3-9.71,7.25-15.12,12.75c-5.42,5.5-10.38,11.5-14.88,18c-11.17,16-20.96,30.96-29.38,44.88
		c-8.42,13.92-15.46,26.38-21.12,37.38c-5.67,11-9.92,20.38-12.75,28.12c-2.84,7.75-4.25,13.46-4.25,17.12c0,2.83,0.62,5.16,1.88,7
		c1.25,1.83,3.29,2.75,6.12,2.75c4.5,0,8.79-1.42,12.88-4.25c4.08-2.84,7.96-6.38,11.62-10.62c3.66-4.25,7-8.96,10-14.12
		c3-5.16,5.58-10,7.75-14.5c0.33-0.66,0.88-0.91,1.62-0.75c0.75,0.17,0.71,0.84-0.12,2c-3,6-6.21,11.71-9.62,17.12
		c-3.42,5.42-7,10.17-10.75,14.25s-7.67,7.29-11.75,9.62c-4.09,2.33-8.12,3.5-12.12,3.5c-4.5,0-7.84-1.21-10-3.62
		c-2.17-2.42-3.25-5.54-3.25-9.38c0-4,0.79-8.29,2.38-12.88c1.58-4.58,4.04-10.21,7.38-16.88c-4.67,5.67-8.75,10.42-12.25,14.25
		c-3.5,3.84-6.59,6.84-9.25,9c-2.67,2.17-4.96,3.71-6.88,4.62c-1.92,0.91-3.62,1.38-5.12,1.38c-2.34,0-3.92-0.62-4.75-1.88
		c-0.84-1.25-1.25-2.88-1.25-4.88c0-1.5,0.41-3.46,1.25-5.88c0.83-2.41,2-4.79,3.5-7.12c6.16-10,13.04-18.16,20.62-24.5
		c7.58-6.33,16.96-10.5,28.12-12.5c8-14,15.66-26.58,23-37.75c7.33-11.16,15.33-22.08,24-32.75c7.16-9,14.29-16.91,21.38-23.75
		c7.08-6.83,14.38-12,21.88-15.5c5.66-2.66,10.58-4,14.75-4c2,0,3.62,0.25,4.88,0.75S1282,256.7,1282,257.54z M1168.25,372.29
		c-6.34,0.17-11.21,1.38-14.62,3.62c-3.42,2.25-6.46,5.04-9.12,8.38c-6.34,7.84-10.84,14.54-13.5,20.12c-2.67,5.59-4,9.71-4,12.38
		c0,0.84,0.33,1.42,1,1.75c0.66,0.34,1.16,0.5,1.5,0.5c1.16,0,3.29-1.25,6.38-3.75c3.08-2.5,6.5-5.88,10.25-10.12
		s7.62-9.21,11.62-14.88C1161.75,384.62,1165.25,378.62,1168.25,372.29z"/>
	<path class="st0" d="M1254.5,394.04c-2.84,3.5-6.21,7.12-10.12,10.88c-3.92,3.75-8.17,7.17-12.75,10.25
		c-4.59,3.09-9.34,5.59-14.25,7.5c-4.92,1.91-9.79,2.88-14.62,2.88c-7.84,0-11.75-3.5-11.75-10.5c0-4.66,1.21-9.71,3.62-15.12
		c2.41-5.41,5.54-10.41,9.38-15c3.83-4.58,8.04-8.41,12.62-11.5c4.58-3.08,8.96-4.62,13.12-4.62c2.33,0,3.96,0.42,4.88,1.25
		c0.91,0.84,1.38,1.92,1.38,3.25c0,2-0.62,4.17-1.88,6.5c-1.25,2.34-3.12,4.54-5.62,6.62c-2.5,2.09-5.67,3.84-9.5,5.25
		c-3.84,1.42-8.42,2.12-13.75,2.12c-0.84,1.5-1.75,3.88-2.75,7.12s-1.5,6.54-1.5,9.88c0,6.84,3.08,10.25,9.25,10.25
		c3.83,0,7.79-0.91,11.88-2.75c4.08-1.83,8.04-4.12,11.88-6.88c3.83-2.75,7.38-5.75,10.62-9s5.96-6.29,8.12-9.12
		c0.33-0.33,0.71-0.41,1.12-0.25C1254.29,393.2,1254.5,393.54,1254.5,394.04z M1228.25,374.54c0-2.16-1.09-3.25-3.25-3.25
		c-1.67,0-3.38,0.62-5.12,1.88s-3.46,2.88-5.12,4.88c-1.67,2-3.25,4.17-4.75,6.5c-1.5,2.34-2.75,4.59-3.75,6.75
		c0.33,0.17,0.91,0.29,1.75,0.38c0.83,0.09,1.5,0.12,2,0.12c4.83,0,9.08-1.71,12.75-5.12
		C1226.42,383.25,1228.25,379.2,1228.25,374.54z"/>
	<path class="st0" d="M1337.25,402.29c-2.34,2.67-5.12,5.67-8.38,9c-3.25,3.34-6.71,6.5-10.38,9.5c-3.67,3-7.46,5.5-11.38,7.5
		c-3.92,2-7.71,3-11.38,3c-3.34,0-5.67-0.67-7-2c-1.34-1.34-2-3.42-2-6.25c0-1.83,0.96-4.83,2.88-9c1.91-4.16,4.04-8.5,6.38-13
		c2.33-4.5,4.46-8.79,6.38-12.88c1.91-4.08,2.88-6.96,2.88-8.62c0-1-0.42-1.5-1.25-1.5c-2.17,1.17-4.62,2.88-7.38,5.12
		s-5.46,4.71-8.12,7.38c-2.67,2.67-5.12,5.25-7.38,7.75s-3.96,4.59-5.12,6.25c-1.17,1.67-2.34,3.67-3.5,6
		c-1.17,2.34-2.29,4.59-3.38,6.75c-1.09,2.17-2.17,4-3.25,5.5c-1.09,1.5-2.04,2.25-2.88,2.25c-0.84,0-1.59-0.42-2.25-1.25
		c-0.67-0.83-1-1.66-1-2.5c0-0.5,0.25-1.38,0.75-2.62s1.41-2.79,2.75-4.62c2.16-3,4.12-6.16,5.88-9.5c1.75-3.33,3.25-6.41,4.5-9.25
		c1.25-2.83,2.21-5.25,2.88-7.25c0.66-2,1-3.16,1-3.5c0-1.33-0.34-2-1-2c-1,0-2.71,1.04-5.12,3.12c-2.42,2.09-5.04,4.62-7.88,7.62
		c-2.84,3-5.62,6.17-8.38,9.5c-2.75,3.34-5.04,6.34-6.88,9c-2.34,3.5-4.34,6.59-6,9.25c-1.67,2.67-2.92,4-3.75,4
		c-1.34,0-2.12-0.59-2.38-1.75s-0.38-2.33-0.38-3.5c0-1.33,0.33-2.41,1-3.25c4.5-7.16,8.91-14.5,13.25-22
		c4.33-7.5,8.66-14.91,13-22.25c0.83-1.5,1.75-2.25,2.75-2.25c0.83,0,1.58,0.46,2.25,1.38c0.66,0.92,1,1.79,1,2.62
		c-1.17,3.34-3.17,7.42-6,12.25c-2.84,4.84-5.34,9.25-7.5,13.25c6.66-7.66,12.25-13.46,16.75-17.38c4.5-3.91,8.16-5.88,11-5.88
		c1.83,0,2.75,1.25,2.75,3.75c0,1.67-0.75,4.21-2.25,7.62c-1.5,3.42-2.84,6.21-4,8.38c-0.34,0.67-0.38,0.96-0.12,0.88
		c0.25-0.08,0.54-0.29,0.88-0.62c2-2.33,4.29-4.79,6.88-7.38c2.58-2.58,5.33-5.04,8.25-7.38c2.91-2.33,5.83-4.5,8.75-6.5
		c2.91-2,5.62-3.58,8.12-4.75c2.5,0,3.75,1.17,3.75,3.5c0,0.5-0.09,1-0.25,1.5c-0.17,0.5-0.42,1.09-0.75,1.75
		c-0.84,1.84-2.38,4.84-4.62,9c-2.25,4.17-4.54,8.62-6.88,13.38c-2.34,4.75-4.38,9.34-6.12,13.75c-1.75,4.42-2.62,7.79-2.62,10.12
		c0,3.33,1.58,5,4.75,5c3,0,6.16-1,9.5-3c3.33-2,6.66-4.41,10-7.25c3.33-2.83,6.41-5.79,9.25-8.88c2.83-3.08,5.25-5.79,7.25-8.12
		c0.66-1,1.33-1.41,2-1.25C1338.42,399.95,1338.25,400.79,1337.25,402.29z"/>
	<path class="st0" d="M1334.5,421.04c-2.34,0-4.17-0.5-5.5-1.5c-1.34-1-2-2.5-2-4.5c0-3.33,2.04-8.29,6.12-14.88
		c4.08-6.58,9.04-14.38,14.88-23.38c0.66-0.83,1.21-1.46,1.62-1.88c0.41-0.41,0.88-0.79,1.38-1.12c0.83-0.16,1.96-0.38,3.38-0.62
		c1.41-0.25,2.29-0.38,2.62-0.38c0.66,0,1,0.25,1,0.75c-6,10.5-11.04,19.04-15.12,25.62c-4.09,6.59-6.12,11.71-6.12,15.38
		c0,2,0.91,3,2.75,3c0.83,0,1.91-0.25,3.25-0.75c1.33-0.5,2.75-1.16,4.25-2c1.5-0.83,2.91-1.71,4.25-2.62
		c1.33-0.91,2.33-1.79,3-2.62c1.5-1.5,3.71-5.04,6.62-10.62c2.91-5.58,6.46-12.12,10.62-19.62c2-3.66,3.88-6.75,5.62-9.25
		s3.21-3.75,4.38-3.75c0.66,0.34,1.29,1.17,1.88,2.5c0.58,1.34,0.88,2.67,0.88,4c0,0.67-0.75,2.21-2.25,4.62
		c-1.5,2.42-3.42,5.25-5.75,8.5c-2.34,3.25-4.88,6.71-7.62,10.38c-2.75,3.67-5.38,7.09-7.88,10.25c-6,9.17-12.04,18.62-18.12,28.38
		c-6.09,9.75-12.21,19.16-18.38,28.25c-6.16,9.08-12.5,17.66-19,25.75c-6.5,8.08-13.21,15.12-20.12,21.12
		c-6.91,6-14.08,10.75-21.5,14.25c-7.41,3.5-15.21,5.25-23.38,5.25c-4.83,0-9.16-1.17-13-3.5c-3.83-2.34-5.75-6.42-5.75-12.25
		c0-1.34,0.12-2.71,0.38-4.12c0.25-1.42,0.54-2.54,0.88-3.38c0.17-0.5,0.42-0.84,0.75-1c0.34-0.17,0.5,0.08,0.5,0.75
		c0,4.5,1.67,8.58,5,12.25c3.34,3.66,9.25,5.5,17.75,5.5c6.84,0,13.62-1.71,20.38-5.12c6.75-3.42,13.34-7.96,19.75-13.62
		c6.42-5.67,12.62-12.25,18.62-19.75s11.79-15.34,17.38-23.5c5.58-8.17,10.88-16.38,15.88-24.62s9.58-16.04,13.75-23.38
		c0.33-0.66,0.33-0.91,0-0.75c-0.34,0.17-0.59,0.34-0.75,0.5c-1.84,1.5-4.34,3.12-7.5,4.88
		C1341.08,420.16,1337.83,421.04,1334.5,421.04z"/>
</g>
</svg>
