<?xml version="1.0" encoding="utf-8"?>
<!-- Generator: Adobe Illustrator 24.2.3, SVG Export Plug-In . SVG Version: 6.00 Build 0)  -->
<svg version="1.1" id="レイヤー_1" xmlns="http://www.w3.org/2000/svg" xmlns:xlink="http://www.w3.org/1999/xlink" x="0px"
	 y="0px" viewBox="0 0 304 454" style="enable-background:new 0 0 304 454;" xml:space="preserve">
<style type="text/css">
	.st0{fill:url(#SVGID_1_);}
	.st1{fill:#FF8040;}
	.st2{fill:none;stroke:#FF8040;stroke-width:4;stroke-linecap:round;stroke-miterlimit:10;}
	.st3{fill:none;stroke:#FF8040;stroke-width:4;stroke-linecap:round;stroke-linejoin:round;stroke-miterlimit:10;}
	.st4{fill:#F5F5F5;}
</style>
<linearGradient id="SVGID_1_" gradientUnits="userSpaceOnUse" x1="2" y1="193.0409" x2="301.9999" y2="193.0409">
	<stop  offset="0" style="stop-color:#40C0DC"/>
	<stop  offset="1" style="stop-color:#80E0D0"/>
</linearGradient>
<circle class="st0" cx="152" cy="193.04" r="150"/>
<g>
	<path class="st1" d="M301.87,0h-100c-1.1,0-2,0.9-2,2v16c0,1.1,0.9,2,2,2h100c1.1,0,2-0.9,2-2V2C303.87,0.9,302.97,0,301.87,0z"/>
	<path class="st1" d="M301.87,32h-66c-1.1,0-2,0.9-2,2v16c0,1.1,0.9,2,2,2h66c1.1,0,2-0.9,2-2V34C303.87,32.9,302.97,32,301.87,32z"
		/>
	<path class="st1" d="M301.87,64h-110c-1.1,0-2,0.9-2,2v16c0,1.1,0.9,2,2,2h110c1.1,0,2-0.9,2-2V66C303.87,64.9,302.97,64,301.87,64
		z"/>
</g>
<g>
	<path class="st2" d="M152,452c0,0,0-110,0-110c82.84,0,150-67.16,150-150V2"/>
	<polyline class="st3" points="167,397 152,447 137,397 	"/>
</g>
<path class="st4" d="M228.08,16.11h-2.14v-5.6h-5.17v5.6h-2.15V3.69h2.15v5.06h5.17V3.69h2.14V16.11z"/>
<path class="st4" d="M242.05,11.82c0,2.98-1.83,4.51-4.69,4.51c-2.88,0-4.74-1.49-4.74-4.51V3.69h2.16v8.1c0,2.03,0.98,2.9,2.62,2.9
	c1.63,0,2.62-0.86,2.62-2.9v-8.1h2.02V11.82z"/>
<path class="st4" d="M258.85,16.11h-2.07V9.84c0-1.55,0.02-2.91,0.03-4.39h-0.22c-0.32,1.42-0.61,2.71-1.02,4.23l-1.68,6.43h-2.53
	l-1.63-6.35c-0.38-1.44-0.69-2.79-1.06-4.31h-0.22c0.03,1.44,0.05,2.88,0.05,4.42v6.24h-1.91V3.69h3.51l1.57,6.34
	c0.32,1.3,0.64,2.74,0.9,4.1h0.22c0.34-1.36,0.59-2.64,0.96-4.07l1.58-6.37h3.52V16.11z"/>
<path class="st4" d="M272.54,16.11h-2.26l-1.06-3.65h-3.81l-1.07,3.65h-2.05l3.81-12.42h2.61L272.54,16.11z M268.12,8.35
	c-0.27-0.98-0.46-1.89-0.74-3.06h-0.14c-0.27,1.18-0.5,2.08-0.77,3.04l-0.67,2.53h3.04L268.12,8.35z"/>
<path class="st4" d="M285.52,16.11h-2.64l-3.01-6.4c-0.72-1.55-1.22-2.71-1.78-4.1h-0.22c0.08,1.47,0.11,2.95,0.11,4.48v6.02h-1.99
	V3.69h3.25l2.58,5.51c0.7,1.55,1.18,2.82,1.65,4.26h0.22c-0.1-1.52-0.16-2.88-0.16-4.55V3.69h1.99V16.11z"/>
<path class="st4" d="M261.73,48.11h-2.26l-1.06-3.65h-3.81l-1.07,3.65h-2.05l3.81-12.42h2.61L261.73,48.11z M257.31,40.35
	c-0.27-0.98-0.46-1.89-0.74-3.06h-0.14c-0.27,1.18-0.5,2.08-0.77,3.04l-0.67,2.53h3.04L257.31,40.35z"/>
<path class="st4" d="M269.64,35.69c3.03,0,4.4,1.22,4.4,3.38c0,1.54-0.86,2.67-2.46,3.15l2.86,5.89h-2.32l-2.51-5.57
	c-0.18,0-0.35,0.02-0.56,0.02h-1.76v5.55h-2.11V35.69H269.64z M267.29,40.96h2.16c1.7,0,2.43-0.7,2.43-1.86
	c0-1.1-0.62-1.79-2.34-1.79h-2.26V40.96z"/>
<path class="st4" d="M286.51,37.44h-3.7v10.68h-2.18V37.44h-3.67v-1.74h9.54V37.44z"/>
<path class="st4" d="M217.55,71.15c-0.32-1.34-1.06-2.03-2.21-2.03c-1.31,0-2.07,0.62-2.07,1.62c0,1.09,0.48,1.58,2.27,2.08
	l0.66,0.19c2.83,0.77,3.63,1.84,3.63,3.67c0,2.18-1.5,3.68-4.48,3.68c-2.42,0-4.1-1.06-4.69-3.22l2.07-0.66
	c0.32,1.44,1.26,2.24,2.58,2.24c1.63,0,2.37-0.7,2.37-1.78s-0.38-1.57-2.42-2.15l-0.64-0.19c-2.64-0.78-3.49-1.83-3.49-3.73
	c0-1.87,1.47-3.39,4.15-3.39c2.18,0,3.71,1.02,4.37,3.09L217.55,71.15z"/>
<path class="st4" d="M231.04,71.76c-0.3-1.73-1.2-2.62-2.61-2.62c-1.84,0-3.12,1.6-3.12,4.77c0,3.15,1.31,4.77,3.12,4.77
	c1.49,0,2.38-0.85,2.74-2.66l2.03,0.62c-0.66,2.56-2.26,3.7-4.79,3.7c-3.22,0-5.39-2.32-5.39-6.42c0-4.11,2.19-6.45,5.39-6.45
	c2.54,0,4.21,1.42,4.72,3.78L231.04,71.76z"/>
<path class="st4" d="M246.25,80.11h-2.14v-5.6h-5.17v5.6h-2.15V67.69h2.15v5.06h5.17v-5.06h2.14V80.11z"/>
<path class="st4" d="M260.78,73.9c0,4.1-2.14,6.45-5.33,6.45s-5.31-2.32-5.31-6.42c0-4.11,2.16-6.45,5.33-6.45
	C258.65,67.48,260.78,69.79,260.78,73.9z M252.42,73.92c0,3.17,1.22,4.77,3.04,4.77c1.82,0,3.02-1.6,3.02-4.77
	c0-3.19-1.2-4.77-3.02-4.77C253.64,69.15,252.42,70.73,252.42,73.92z"/>
<path class="st4" d="M274.62,73.9c0,4.1-2.14,6.45-5.33,6.45s-5.31-2.32-5.31-6.42c0-4.11,2.16-6.45,5.33-6.45
	C272.49,67.48,274.62,69.79,274.62,73.9z M266.27,73.92c0,3.17,1.22,4.77,3.04,4.77c1.82,0,3.02-1.6,3.02-4.77
	c0-3.19-1.2-4.77-3.02-4.77C267.48,69.15,266.27,70.73,266.27,73.92z"/>
<path class="st4" d="M280.68,78.37h5.83v1.75h-8V67.69h2.18V78.37z"/>
</svg>
