<?xml version="1.0" encoding="utf-8"?>
<!-- Generator: Adobe Illustrator 24.2.3, SVG Export Plug-In . SVG Version: 6.00 Build 0)  -->
<svg version="1.1" id="レイヤー_1" xmlns="http://www.w3.org/2000/svg" xmlns:xlink="http://www.w3.org/1999/xlink" x="0px"
	 y="0px" viewBox="0 0 210 60" style="enable-background:new 0 0 210 60;" xml:space="preserve">
<style type="text/css">
	.st0{fill:none;}
	.st1{fill:#40C0DC;}
	.st2{fill:url(#SVGID_1_);}
	.st3{fill:#FF8040;}
</style>
<g>
	<rect class="st0" width="210" height="60"/>
	<g>
		<g>
			<path class="st1" d="M76,4.2h8.64v1.03h-1.59c-0.56,0-0.92,0.1-1.09,0.29c-0.17,0.2-0.25,0.67-0.25,1.43v6.23h9.24V6.95
				c0-0.78-0.08-1.27-0.24-1.45c-0.16-0.18-0.54-0.27-1.13-0.27h-1.48V4.2h8.59v1.03h-1.57c-0.39,0-0.67,0.05-0.83,0.15
				c-0.16,0.1-0.29,0.27-0.39,0.52c-0.05,0.16-0.08,0.56-0.08,1.22v14.55c0,0.7,0.06,1.13,0.18,1.27c0.24,0.31,0.67,0.46,1.3,0.46
				h1.39v1.03h-8.59v-1.03h1.48c0.58,0,0.98-0.16,1.19-0.48c0.12-0.17,0.18-0.63,0.18-1.37v-7.03h-9.24v7.14
				c0,0.71,0.05,1.14,0.16,1.29c0.23,0.3,0.62,0.45,1.18,0.45h1.59v1.03H76v-1.03h1.65c0.29,0,0.52-0.06,0.7-0.18
				c0.17-0.12,0.3-0.29,0.38-0.51c0.05-0.15,0.07-0.53,0.07-1.16V6.95c0-0.76-0.08-1.23-0.25-1.43c-0.17-0.2-0.54-0.29-1.1-0.29H76
				V4.2z"/>
			<path class="st1" d="M103.32,11.38v8.49c0,1.04,0.26,1.84,0.78,2.41c0.52,0.57,1.2,0.85,2.03,0.85c1.02,0,1.88-0.41,2.6-1.24
				c0.71-0.82,1.07-1.86,1.07-3.1v-4.8c0-0.44-0.16-0.78-0.47-1.02c-0.31-0.24-0.92-0.38-1.81-0.4v-0.96l4.5-0.23v10.51
				c0,0.48,0.14,0.85,0.41,1.11s0.66,0.39,1.15,0.39h0.81v0.92l-4.31,0.1l-0.27-2.52c-0.76,0.9-1.53,1.58-2.31,2.04
				c-0.77,0.46-1.56,0.68-2.35,0.68c-1.16,0-2.12-0.39-2.91-1.16c-0.79-0.77-1.19-2.06-1.19-3.9v-5.56c0-0.49-0.2-0.87-0.59-1.12
				c-0.27-0.18-0.83-0.28-1.68-0.3v-0.96L103.32,11.38z"/>
			<path class="st1" d="M116.83,11.61l3.66-0.23c0.2,0.95,0.33,1.86,0.4,2.72c0.69-1,1.39-1.7,2.08-2.11
				c0.69-0.41,1.46-0.61,2.29-0.61c0.89,0,1.62,0.23,2.19,0.69c0.58,0.46,1.02,1.22,1.33,2.26c0.61-0.99,1.29-1.73,2.03-2.22
				s1.56-0.74,2.44-0.74c1.17,0,2.04,0.35,2.62,1.04c0.75,0.91,1.12,2.09,1.12,3.53v6.36c0,0.38,0.1,0.64,0.29,0.78
				c0.25,0.21,0.63,0.31,1.13,0.31h0.64v1.03h-6.44v-1.03h0.64c0.55,0,0.93-0.09,1.15-0.27s0.33-0.46,0.33-0.82v-6.37
				c0-0.95-0.23-1.68-0.7-2.2c-0.46-0.52-1.07-0.78-1.83-0.78c-0.57,0-1.09,0.15-1.55,0.46s-0.83,0.74-1.09,1.31
				c-0.39,0.81-0.59,1.5-0.59,2.07v5.52c0,0.37,0.1,0.65,0.3,0.83c0.2,0.18,0.51,0.27,0.93,0.27h0.88v1.03h-6.54v-1.03h0.74
				c0.46,0,0.81-0.09,1.04-0.27c0.23-0.18,0.34-0.41,0.34-0.7v-5.91c0-1.25-0.22-2.16-0.66-2.72c-0.44-0.56-1.04-0.85-1.78-0.85
				c-0.97,0-1.71,0.33-2.23,0.98c-0.74,0.93-1.11,2.01-1.11,3.25v5.11c0,0.39,0.09,0.66,0.26,0.81c0.25,0.19,0.63,0.29,1.15,0.29
				h0.66v1.03h-6.45v-1.03h0.97c0.36,0,0.64-0.09,0.84-0.27c0.2-0.18,0.29-0.41,0.29-0.7v-8.39c0-0.46-0.12-0.81-0.36-1.04
				c-0.24-0.23-0.71-0.37-1.42-0.44V11.61z"/>
			<path class="st1" d="M154.46,23.01l0.49,0.77c-0.67,0.68-1.4,1.03-2.21,1.03c-0.62,0-1.14-0.17-1.57-0.51s-0.8-0.93-1.11-1.78
				c-0.87,0.91-1.63,1.52-2.28,1.83c-0.66,0.31-1.44,0.46-2.37,0.46c-1.31,0-2.31-0.28-2.99-0.85c-0.68-0.56-1.03-1.29-1.03-2.17
				c0-1.33,0.78-2.44,2.34-3.32c1.56-0.88,3.64-1.46,6.24-1.76v-1.94c0-0.69-0.28-1.29-0.83-1.78c-0.56-0.49-1.26-0.74-2.12-0.74
				c-0.79,0-1.48,0.16-2.05,0.49c-0.41,0.25-0.62,0.49-0.62,0.72c0,0.14,0.11,0.35,0.33,0.64c0.26,0.37,0.4,0.69,0.4,0.97
				c0,0.41-0.13,0.75-0.4,1c-0.26,0.26-0.61,0.39-1.04,0.39c-0.46,0-0.84-0.15-1.14-0.46c-0.31-0.31-0.46-0.71-0.46-1.19
				c0-0.9,0.51-1.73,1.52-2.47c1.02-0.75,2.35-1.12,4-1.12c1.52,0,2.68,0.33,3.49,0.98c0.8,0.67,1.2,1.47,1.2,2.42v7
				c0,0.62,0.1,1.08,0.3,1.37c0.2,0.3,0.46,0.45,0.78,0.45C153.7,23.45,154.07,23.3,154.46,23.01z M149.98,17.61
				c-2.32,0.32-3.96,0.84-4.92,1.56c-0.72,0.55-1.08,1.32-1.08,2.32c0,0.7,0.19,1.25,0.56,1.65c0.37,0.4,0.86,0.59,1.46,0.59
				c1.08,0,2.01-0.41,2.8-1.22c0.79-0.82,1.18-1.84,1.18-3.07V17.61z"/>
			<path class="st1" d="M156.5,11.61l4.25-0.26c0.17,0.8,0.3,1.74,0.38,2.82c0.57-0.93,1.25-1.63,2.03-2.09s1.66-0.7,2.65-0.7
				c0.85,0,1.56,0.17,2.13,0.5c0.57,0.33,1.03,0.86,1.38,1.58c0.35,0.72,0.52,1.53,0.52,2.42v6.23c0,0.46,0.1,0.8,0.31,0.99
				c0.21,0.2,0.56,0.29,1.05,0.29h0.9v1.03h-6.75v-1.03H166c0.6,0,1.02-0.1,1.26-0.29c0.24-0.19,0.36-0.48,0.36-0.86v-5.48
				c0-1.19-0.18-2.08-0.55-2.65c-0.51-0.82-1.29-1.23-2.32-1.23c-1.03,0-1.89,0.42-2.58,1.24c-0.69,0.83-1.03,1.91-1.03,3.24v4.74
				c0,0.46,0.11,0.8,0.32,0.99c0.21,0.2,0.57,0.29,1.06,0.29h0.89v1.03h-6.78v-1.03h0.89c0.45,0,0.79-0.09,1.02-0.27
				c0.23-0.18,0.35-0.41,0.35-0.68v-8.27c0-0.55-0.15-0.96-0.44-1.24c-0.3-0.28-0.72-0.42-1.28-0.42h-0.66V11.61z"/>
			<path class="st1" d="M84.47,35.78h0.92l7.25,18.5c0.29,0.75,0.89,1.12,1.79,1.12h0.63v1.03h-8.07v-1.03h0.64
				c0.84,0,1.43-0.09,1.78-0.27c0.24-0.13,0.36-0.32,0.36-0.59c0-0.15-0.03-0.32-0.1-0.49L88,49.75h-8l-0.94,2.46
				c-0.25,0.66-0.37,1.18-0.37,1.56c0,0.45,0.21,0.83,0.62,1.15c0.41,0.32,1.02,0.48,1.81,0.48h0.68v1.03h-7.33v-1.03
				c0.78,0,1.4-0.17,1.86-0.51s0.88-0.99,1.26-1.95L84.47,35.78z M84.08,39.67l-3.63,9.01h7.14L84.08,39.67z"/>
			<path class="st1" d="M95.62,43.61l4.61-0.23v5.18c0.49-1.7,1.08-2.99,1.78-3.87c0.69-0.88,1.55-1.31,2.57-1.31
				c0.69,0,1.25,0.21,1.66,0.64c0.41,0.42,0.62,0.99,0.62,1.7c0,0.57-0.14,1.02-0.42,1.34c-0.28,0.32-0.63,0.48-1.05,0.48
				c-0.41,0-0.74-0.14-0.99-0.41c-0.25-0.27-0.38-0.64-0.38-1.11c0-0.3,0.07-0.58,0.22-0.85c0.14-0.24,0.21-0.38,0.21-0.42
				c0-0.14-0.09-0.21-0.26-0.21c-0.37,0-0.8,0.22-1.27,0.66c-0.66,0.61-1.16,1.45-1.52,2.52c-0.55,1.66-0.82,2.99-0.82,3.98v2.75
				c0,0.31,0.11,0.55,0.33,0.71s0.59,0.25,1.12,0.25h1.63v1.03H95.7v-1.03h1.27c0.43,0,0.75-0.08,0.97-0.25
				c0.22-0.17,0.33-0.37,0.33-0.61v-8.16c0-0.62-0.13-1.07-0.4-1.36c-0.26-0.29-0.64-0.43-1.13-0.43h-1.12V43.61z"/>
			<path class="st1" d="M111.63,38.39h0.92v5.22h4.14v1.26h-4.14v8.22c0,0.71,0.17,1.26,0.51,1.63c0.34,0.38,0.77,0.57,1.29,0.57
				c0.62,0,1.15-0.29,1.59-0.86s0.69-1.52,0.77-2.84h0.92c-0.05,1.71-0.44,2.97-1.16,3.79c-0.72,0.83-1.65,1.24-2.8,1.24
				c-1.06,0-1.88-0.29-2.48-0.87c-0.6-0.58-0.9-1.34-0.9-2.28v-8.6h-2.23v-0.96c1.02-0.17,1.79-0.6,2.32-1.27
				C111.14,41.63,111.57,40.21,111.63,38.39z"/>
			<path class="st1" d="M138.96,37.73l1.23-1.76h1l0.08,7.37h-0.9c-0.57-2.26-1.4-3.91-2.51-4.95s-2.38-1.56-3.82-1.56
				c-1.2,0-2.19,0.36-2.95,1.08s-1.15,1.6-1.15,2.64c0,0.65,0.15,1.22,0.44,1.7c0.29,0.49,0.73,0.89,1.3,1.19
				c0.58,0.31,1.67,0.63,3.27,0.98c2.25,0.49,3.83,0.99,4.74,1.49c0.91,0.5,1.58,1.13,2.03,1.89c0.45,0.76,0.67,1.65,0.67,2.67
				c0,1.82-0.61,3.33-1.84,4.53c-1.23,1.2-2.81,1.8-4.75,1.8c-2.09,0-3.9-0.67-5.44-2.02l-1.54,1.89h-0.98v-7.83h0.98
				c0.38,2.16,1.24,3.87,2.57,5.11c1.33,1.25,2.83,1.87,4.5,1.87c1.35,0,2.45-0.4,3.3-1.2c0.85-0.8,1.28-1.77,1.28-2.91
				c0-0.65-0.16-1.21-0.48-1.7c-0.32-0.49-0.83-0.9-1.52-1.23c-0.69-0.33-2.06-0.74-4.09-1.21c-2.23-0.53-3.76-1.12-4.57-1.78
				c-1.14-0.93-1.71-2.25-1.71-3.95c0-1.78,0.57-3.23,1.7-4.37s2.59-1.7,4.35-1.7c0.85,0,1.65,0.15,2.42,0.45
				S138.14,37.03,138.96,37.73z"/>
			<path class="st1" d="M154.36,52.62l0.89,0.26c-0.71,2.62-2.28,3.92-4.7,3.92c-1.78,0-3.23-0.59-4.36-1.76
				c-1.13-1.18-1.7-2.74-1.7-4.69c0-2.26,0.62-4.01,1.86-5.26c1.24-1.24,2.7-1.87,4.38-1.87c1.26,0,2.3,0.35,3.12,1.04
				c0.82,0.69,1.23,1.46,1.23,2.31c0,0.51-0.15,0.93-0.46,1.26c-0.31,0.33-0.67,0.5-1.09,0.5c-0.41,0-0.76-0.14-1.04-0.42
				c-0.28-0.28-0.42-0.62-0.42-1.02c0-0.4,0.15-0.78,0.46-1.14c0.15-0.17,0.22-0.31,0.22-0.41c0-0.26-0.18-0.52-0.53-0.77
				s-0.84-0.38-1.45-0.38c-1.11,0-1.96,0.41-2.53,1.22c-0.82,1.17-1.23,2.72-1.23,4.64c0,1.83,0.36,3.22,1.09,4.16
				c0.73,0.94,1.66,1.41,2.79,1.41C152.44,55.63,153.6,54.62,154.36,52.62z"/>
			<path class="st1" d="M156.67,36.2l4.85-0.23v9.87c0.67-0.88,1.4-1.53,2.17-1.96c0.77-0.43,1.59-0.65,2.46-0.65
				c0.82,0,1.56,0.2,2.21,0.59c0.51,0.31,0.95,0.85,1.31,1.63c0.36,0.78,0.54,1.69,0.54,2.75v6.08c0,0.39,0.1,0.68,0.3,0.85
				c0.2,0.18,0.51,0.27,0.94,0.27h1.09v1.03h-6.92v-1.03h0.77c0.58,0,0.99-0.09,1.21-0.28c0.22-0.19,0.33-0.47,0.33-0.84v-6.08
				c0-1.07-0.26-1.9-0.77-2.5c-0.52-0.6-1.17-0.9-1.98-0.9c-0.63,0-1.21,0.17-1.75,0.51c-0.54,0.34-0.99,0.85-1.37,1.54
				c-0.37,0.69-0.56,1.42-0.56,2.18v5.11c0,0.46,0.1,0.78,0.29,0.97s0.51,0.29,0.94,0.29h1.09v1.03h-6.77v-1.03h0.77
				c0.52,0,0.89-0.1,1.11-0.31s0.33-0.52,0.33-0.95V38.85c0-0.55-0.14-0.95-0.43-1.22c-0.29-0.27-0.7-0.4-1.25-0.4h-0.93V36.2z"/>
			<path class="st1" d="M180.14,43.23c1.72,0,3.17,0.62,4.34,1.87c1.17,1.24,1.76,2.88,1.76,4.92c0,1.4-0.26,2.6-0.79,3.59
				c-0.52,0.99-1.27,1.77-2.24,2.34s-2.02,0.86-3.14,0.86c-1.66,0-3.06-0.63-4.22-1.89c-1.15-1.26-1.73-2.89-1.73-4.89
				c0-2.01,0.58-3.65,1.74-4.91C177.02,43.86,178.45,43.23,180.14,43.23z M180.14,44.2c-1.02,0-1.86,0.46-2.52,1.39
				c-0.66,0.93-0.98,2.39-0.98,4.38c0,2.03,0.33,3.52,0.98,4.46c0.65,0.94,1.49,1.41,2.52,1.41c1.07,0,1.93-0.47,2.59-1.41
				c0.66-0.94,0.99-2.47,0.99-4.61c0-1.98-0.33-3.41-0.98-4.29C182.09,44.64,181.23,44.2,180.14,44.2z"/>
			<path class="st1" d="M194.14,43.23c1.72,0,3.17,0.62,4.34,1.87c1.17,1.24,1.76,2.88,1.76,4.92c0,1.4-0.26,2.6-0.79,3.59
				c-0.52,0.99-1.27,1.77-2.24,2.34s-2.02,0.86-3.14,0.86c-1.66,0-3.06-0.63-4.22-1.89c-1.15-1.26-1.73-2.89-1.73-4.89
				c0-2.01,0.58-3.65,1.74-4.91C191.02,43.86,192.45,43.23,194.14,43.23z M194.14,44.2c-1.02,0-1.86,0.46-2.52,1.39
				c-0.66,0.93-0.98,2.39-0.98,4.38c0,2.03,0.33,3.52,0.98,4.46c0.65,0.94,1.49,1.41,2.52,1.41c1.07,0,1.93-0.47,2.59-1.41
				c0.66-0.94,0.99-2.47,0.99-4.61c0-1.98-0.33-3.41-0.98-4.29C196.09,44.64,195.23,44.2,194.14,44.2z"/>
			<path class="st1" d="M206.94,35.97v18.57c0,0.26,0.08,0.45,0.23,0.59c0.23,0.18,0.51,0.27,0.83,0.27h1.35v1.03h-7.26v-1.03h1.29
				c0.42,0,0.73-0.1,0.94-0.3c0.21-0.2,0.31-0.48,0.31-0.85V38.66c0-0.46-0.12-0.79-0.37-1c-0.34-0.29-0.75-0.44-1.24-0.44h-1.15
				V36.2L206.94,35.97z"/>
		</g>
	</g>
	<g>
		<linearGradient id="SVGID_1_" gradientUnits="userSpaceOnUse" x1="5.8669" y1="30" x2="54.133" y2="30">
			<stop  offset="0" style="stop-color:#40C0DC"/>
			<stop  offset="1" style="stop-color:#80E0D0"/>
		</linearGradient>
		<path class="st2" d="M30,5.87C16.67,5.87,5.87,16.67,5.87,30S16.67,54.13,30,54.13S54.13,43.33,54.13,30S43.33,5.87,30,5.87z
			 M36.76,23.11c0.18-0.39,0.39-0.75,0.58-1.13c0.2-0.36,0.42-0.72,0.65-1.06c0.23-0.34,0.33-0.81,0.72-0.99
			c0.38-0.19,0.81-0.33,1.47-0.24c0.07,0.01,0.13,0.07,0.14,0.14c0.09,0.66-0.05,1.09-0.24,1.47c-0.18,0.39-0.65,0.49-0.99,0.72
			c-0.34,0.23-0.69,0.44-1.06,0.65c-0.38,0.19-0.73,0.4-1.13,0.58c-0.05,0.02-0.11,0-0.14-0.05C36.75,23.16,36.75,23.13,36.76,23.11
			z M28.55,17.45c0.09-0.32,0.22-0.64,0.43-0.97c0.2-0.32,0.46-0.64,0.87-0.97c0.09-0.07,0.21-0.06,0.29,0
			c0.42,0.32,0.67,0.64,0.87,0.97c0.21,0.32,0.34,0.64,0.43,0.97c0.22,0.64-0.17,1.29-0.29,1.93c-0.12,0.64-0.27,1.29-0.43,1.93
			c-0.19,0.64-0.35,1.29-0.58,1.93c-0.03,0.08-0.12,0.12-0.2,0.09c-0.04-0.02-0.08-0.05-0.09-0.09c-0.23-0.64-0.38-1.29-0.58-1.93
			c-0.17-0.64-0.31-1.29-0.43-1.93C28.72,18.74,28.33,18.09,28.55,17.45z M19.69,19.83c0.01-0.07,0.07-0.13,0.14-0.14
			c0.66-0.09,1.09,0.05,1.47,0.24c0.39,0.18,0.49,0.65,0.72,0.99c0.23,0.34,0.44,0.69,0.65,1.06c0.19,0.38,0.4,0.73,0.58,1.13
			c0.02,0.05,0,0.11-0.05,0.14c-0.03,0.01-0.06,0.01-0.08,0c-0.39-0.18-0.75-0.39-1.13-0.58c-0.36-0.2-0.72-0.42-1.06-0.65
			c-0.34-0.23-0.81-0.33-0.99-0.72C19.74,20.92,19.6,20.49,19.69,19.83z M23.24,36.89c-0.18,0.39-0.39,0.75-0.58,1.13
			c-0.2,0.36-0.42,0.72-0.65,1.06c-0.23,0.34-0.33,0.81-0.72,0.99c-0.38,0.19-0.81,0.33-1.47,0.24c-0.07-0.01-0.13-0.07-0.14-0.14
			c-0.09-0.66,0.05-1.09,0.24-1.47c0.18-0.39,0.65-0.49,0.99-0.72c0.34-0.23,0.69-0.44,1.06-0.65c0.38-0.19,0.73-0.4,1.13-0.58
			c0.05-0.02,0.11,0,0.14,0.05C23.25,36.84,23.25,36.87,23.24,36.89z M23.24,30.14c-0.64,0.23-1.29,0.38-1.93,0.58
			c-0.64,0.17-1.29,0.31-1.93,0.43c-0.64,0.12-1.29,0.51-1.93,0.29c-0.32-0.09-0.64-0.22-0.97-0.43c-0.32-0.2-0.64-0.46-0.97-0.87
			c-0.07-0.09-0.06-0.21,0-0.29c0.32-0.41,0.64-0.67,0.97-0.87c0.32-0.21,0.64-0.34,0.97-0.43c0.64-0.22,1.29,0.17,1.93,0.29
			c0.64,0.12,1.29,0.27,1.93,0.43c0.64,0.19,1.29,0.35,1.93,0.58c0.08,0.03,0.12,0.12,0.09,0.2C23.32,30.1,23.28,30.13,23.24,30.14z
			 M31.45,42.55c-0.09,0.32-0.22,0.64-0.43,0.97c-0.2,0.32-0.46,0.64-0.87,0.97c-0.09,0.07-0.21,0.06-0.29,0
			c-0.42-0.32-0.67-0.64-0.87-0.97c-0.21-0.32-0.34-0.64-0.43-0.97c-0.22-0.64,0.17-1.29,0.29-1.93c0.12-0.64,0.27-1.29,0.43-1.93
			c0.2-0.64,0.35-1.29,0.58-1.93c0.03-0.08,0.12-0.12,0.2-0.09c0.04,0.02,0.08,0.05,0.09,0.09c0.23,0.64,0.38,1.29,0.58,1.93
			c0.17,0.64,0.31,1.29,0.43,1.93C31.28,41.26,31.67,41.91,31.45,42.55z M31.89,31.89c-0.42,0.57-1.12,0.99-1.89,1.01
			c-0.76,0.02-1.53-0.29-2.04-0.85c-0.52-0.55-0.79-1.31-0.76-2.04c0.02-0.73,0.35-1.44,0.87-1.93c0.52-0.49,1.23-0.75,1.93-0.73
			c0.7,0.03,1.36,0.37,1.78,0.88c0.44,0.5,0.66,1.14,0.68,1.78C32.48,30.64,32.32,31.32,31.89,31.89z M40.31,40.17
			c-0.01,0.07-0.07,0.13-0.14,0.14c-0.66,0.09-1.09-0.05-1.47-0.24c-0.39-0.18-0.49-0.65-0.72-0.99c-0.23-0.34-0.44-0.69-0.65-1.06
			c-0.19-0.38-0.4-0.73-0.58-1.13c-0.02-0.05,0-0.11,0.05-0.14c0.03-0.01,0.06-0.01,0.08,0c0.39,0.18,0.75,0.39,1.13,0.58
			c0.36,0.2,0.72,0.42,1.06,0.65c0.34,0.23,0.81,0.33,0.99,0.72C40.26,39.08,40.4,39.51,40.31,40.17z M44.48,30.14
			c-0.32,0.42-0.64,0.67-0.97,0.87c-0.32,0.21-0.64,0.34-0.97,0.43c-0.64,0.22-1.29-0.17-1.93-0.29c-0.64-0.12-1.29-0.27-1.93-0.43
			c-0.64-0.2-1.29-0.35-1.93-0.58c-0.08-0.03-0.12-0.12-0.09-0.2c0.02-0.04,0.05-0.08,0.09-0.09c0.64-0.23,1.29-0.38,1.93-0.58
			c0.64-0.17,1.29-0.31,1.93-0.43c0.64-0.12,1.29-0.51,1.93-0.29c0.32,0.09,0.64,0.22,0.97,0.43c0.32,0.2,0.64,0.46,0.97,0.87
			C44.55,29.94,44.54,30.06,44.48,30.14z"/>
		<g>
			<path class="st3" d="M1.45,26.62c-0.08,0-0.16-0.01-0.24-0.02c-0.79-0.13-1.32-0.88-1.19-1.67C2.48,10.25,15.09-0.41,30-0.41
				c14.91,0,27.51,10.66,29.98,25.34c0.13,0.79-0.4,1.54-1.19,1.67c-0.78,0.13-1.54-0.4-1.67-1.19C54.89,12.13,43.49,2.49,30,2.49
				S5.11,12.13,2.88,25.41C2.76,26.12,2.14,26.62,1.45,26.62z"/>
			<path class="st3" d="M30,60.41c-14.91,0-27.51-10.66-29.98-25.34c-0.13-0.79,0.4-1.54,1.19-1.67c0.79-0.13,1.54,0.4,1.67,1.19
				C5.11,47.87,16.51,57.51,30,57.51s24.89-9.64,27.12-22.92c0.13-0.79,0.88-1.32,1.67-1.19c0.79,0.13,1.32,0.88,1.19,1.67
				C57.51,49.75,44.91,60.41,30,60.41z"/>
		</g>
	</g>
</g>
</svg>
